<svg width="33" height="33" viewBox="0 0 33 33" fill="none" xmlns="http://www.w3.org/2000/svg">
<path d="M26.8221 19.9237C27.7214 18.2351 28.1903 16.3507 28.1875 14.4375C28.1875 7.98256 22.955 2.75 16.5 2.75C10.0451 2.75 4.81252 7.98256 4.81252 14.4375C4.80779 17.1946 5.78237 19.8637 7.56252 21.9691L7.57627 21.9862C7.58108 21.9904 7.5852 21.9959 7.58864 22H7.56252L14.498 29.3631C14.7551 29.636 15.0653 29.8535 15.4095 30.0021C15.7538 30.1507 16.1247 30.2274 16.4997 30.2274C16.8746 30.2274 17.2456 30.1507 17.5898 30.0021C17.934 29.8535 18.2442 29.636 18.5013 29.3631L25.4375 22H25.4114L25.4224 21.9869L25.4238 21.9856C25.4733 21.9264 25.5228 21.8673 25.5716 21.8068C26.0484 21.2207 26.4675 20.5899 26.8228 19.9231L26.8221 19.9237ZM16.5028 18.9062C15.4087 18.9062 14.3595 18.4717 13.586 17.6981C12.8124 16.9245 12.3778 15.8753 12.3778 14.7812C12.3778 13.6872 12.8124 12.638 13.586 11.8644C14.3595 11.0908 15.4087 10.6562 16.5028 10.6562C17.5968 10.6562 18.646 11.0908 19.4196 11.8644C20.1932 12.638 20.6278 13.6872 20.6278 14.7812C20.6278 15.8753 20.1932 16.9245 19.4196 17.6981C18.646 18.4717 17.5968 18.9062 16.5028 18.9062Z" fill="white"/>
</svg>
