<svg width="21" height="21" viewBox="0 0 21 21" fill="none" xmlns="http://www.w3.org/2000/svg">
<path d="M17.0686 12.6788C17.6409 11.6041 17.9393 10.405 17.9375 9.1875C17.9375 5.07981 14.6077 1.75 10.5 1.75C6.39232 1.75 3.06251 5.07981 3.06251 9.1875C3.0595 10.942 3.67969 12.6405 4.81251 13.9803L4.82126 13.9913C4.82432 13.9939 4.82695 13.9974 4.82914 14H4.81251L9.22601 18.6856C9.38962 18.8593 9.58702 18.9977 9.80607 19.0923C10.0251 19.1868 10.2612 19.2356 10.4998 19.2356C10.7384 19.2356 10.9745 19.1868 11.1935 19.0923C11.4126 18.9977 11.61 18.8593 11.7736 18.6856L16.1875 14H16.1709L16.1779 13.9917L16.1788 13.9908C16.2103 13.9532 16.2418 13.9156 16.2728 13.8771C16.5763 13.5041 16.8429 13.1026 17.0691 12.6783L17.0686 12.6788ZM10.5018 12.0312C9.80557 12.0312 9.13789 11.7547 8.64561 11.2624C8.15332 10.7701 7.87676 10.1024 7.87676 9.40625C7.87676 8.71006 8.15332 8.04238 8.64561 7.55009C9.13789 7.05781 9.80557 6.78125 10.5018 6.78125C11.198 6.78125 11.8656 7.05781 12.3579 7.55009C12.8502 8.04238 13.1268 8.71006 13.1268 9.40625C13.1268 10.1024 12.8502 10.7701 12.3579 11.2624C11.8656 11.7547 11.198 12.0312 10.5018 12.0312Z" fill="black"/>
</svg>
