<svg width="15" height="18" viewBox="0 0 15 18" fill="none" xmlns="http://www.w3.org/2000/svg">
<path d="M14.0314 12.7738C13.8785 12.5819 13.3386 12.0146 12.346 11.2639C11.3461 10.5068 10.6087 10.0347 10.3971 9.92458C10.3785 9.91484 10.358 9.91127 10.3377 9.91425C10.3175 9.91723 10.2983 9.92665 10.2823 9.94149C9.94158 10.2545 9.36795 10.8295 9.33718 10.8605C9.13855 11.061 9.13855 11.061 8.97595 10.9986C8.69002 10.8881 7.80174 10.3325 7.02771 9.41865C6.25369 8.50481 5.75769 7.43256 5.66394 7.09608C5.61033 6.9042 5.61033 6.9042 5.78113 6.67022C5.8075 6.63398 6.29588 5.95826 6.5616 5.55725C6.5742 5.53836 6.5822 5.51579 6.58473 5.49196C6.58726 5.46812 6.58422 5.44392 6.57595 5.42197C6.4825 5.17245 6.08172 4.30416 5.43894 3.12631C4.80086 1.95744 4.3198 1.3214 4.15691 1.14126C4.14196 1.12464 4.12349 1.11308 4.10343 1.1078C4.08337 1.10251 4.06248 1.1037 4.04295 1.11123C3.47355 1.34172 2.92418 1.63583 2.40232 1.98953C1.89854 2.33451 1.42159 2.7312 0.977029 3.17497C0.96151 3.19052 0.949875 3.21074 0.943372 3.23348C0.936869 3.25622 0.935743 3.28061 0.940115 3.30404C1.00135 3.64018 1.29402 5.04338 2.20222 6.98703C3.12888 8.97071 3.77107 9.98705 5.13191 11.5845C6.49275 13.182 7.38279 13.9841 9.06853 15.0757C10.7185 16.1455 11.9103 16.4906 12.1951 16.562C12.215 16.5671 12.2358 16.5658 12.2551 16.5581C12.2745 16.5505 12.2917 16.5368 12.305 16.5185C12.6816 15.9949 13.0183 15.433 13.311 14.8396C13.6112 14.2248 13.8609 13.5777 14.0566 12.907C14.0629 12.8842 14.0638 12.8598 14.0594 12.8364C14.055 12.8129 14.0453 12.7913 14.0314 12.7738Z" fill="black"/>
</svg>
