<svg width="33" height="33" viewBox="0 0 33 33" fill="none" xmlns="http://www.w3.org/2000/svg">
<path d="M4.125 9.625C4.125 8.89565 4.41473 8.19618 4.93046 7.68046C5.44618 7.16473 6.14565 6.875 6.875 6.875H26.125C26.8543 6.875 27.5538 7.16473 28.0695 7.68046C28.5853 8.19618 28.875 8.89565 28.875 9.625V23.375C28.875 24.1043 28.5853 24.8038 28.0695 25.3195C27.5538 25.8353 26.8543 26.125 26.125 26.125H6.875C6.14565 26.125 5.44618 25.8353 4.93046 25.3195C4.41473 24.8038 4.125 24.1043 4.125 23.375V9.625Z" stroke="white" stroke-width="2.75" stroke-linecap="round" stroke-linejoin="round"/>
<path d="M4.125 9.625L16.5 17.875L28.875 9.625" stroke="white" stroke-width="2.75" stroke-linecap="round" stroke-linejoin="round"/>
</svg>
