<svg width="18" height="22" viewBox="0 0 18 22" fill="none" xmlns="http://www.w3.org/2000/svg">
<path d="M2.25 6.18431C2.25 5.71568 2.40804 5.26625 2.68934 4.93489C2.97064 4.60352 3.35218 4.41736 3.75 4.41736H14.25C14.6478 4.41736 15.0294 4.60352 15.3107 4.93489C15.592 5.26625 15.75 5.71568 15.75 6.18431V15.0191C15.75 15.4877 15.592 15.9371 15.3107 16.2685C15.0294 16.5998 14.6478 16.786 14.25 16.786H3.75C3.35218 16.786 2.97064 16.5998 2.68934 16.2685C2.40804 15.9371 2.25 15.4877 2.25 15.0191V6.18431Z" stroke="black" stroke-width="1.25" stroke-linecap="round" stroke-linejoin="round"/>
<path d="M2.25 6.1843L9 11.4851L15.75 6.1843" stroke="black" stroke-width="1.25" stroke-linecap="round" stroke-linejoin="round"/>
</svg>
